<svg version="1" xmlns="http://www.w3.org/2000/svg" width="682.667" height="682.667" viewBox="0 0 512.000000 512.000000"><path d="M87.8 53.9c-.8 6.5-.1 7.4 8.5 11.5 21.9 10.6 42 20.6 43 21.5.9.7 1.2 42.8 1.1 171 0 93.5-.2 170.2-.5 170.3-.7.5-33.6 16.7-42.9 21.2-4.7 2.2-8.7 4.4-9 4.7-.3.4-.4 2.7-.2 5.2l.4 4.4h331.5l.1-73.4V317h-10.3l-8.4 20.3c-4.6 11.1-9.2 22-10.2 24.2-1 2.2-6.7 15.7-12.8 30-6 14.3-12.1 28.7-13.5 32l-2.6 6-71.1-.1c-50.3 0-71.2-.3-71.7-1.1-.8-1.2-.9-340.9-.2-341.6.3-.2 10.2-4.5 22-9.7 11.8-5.1 23.3-10.1 25.5-11 2.2-1 5.4-2.4 7.2-3.1 2.7-1.2 3.2-1.9 3.5-5.7.2-2.4.1-4.7-.2-5.2-.3-.4-42.9-.8-94.7-.8H88.2l-.4 2.7z"/></svg>